<?xml version="1.0" encoding="UTF-8" standalone="no"?>
<!-- Created with Inkscape (http://www.inkscape.org/) -->

<svg
   xmlns:dc="http://purl.org/dc/elements/1.1/"
   xmlns:cc="http://creativecommons.org/ns#"
   xmlns:rdf="http://www.w3.org/1999/02/22-rdf-syntax-ns#"
   xmlns:svg="http://www.w3.org/2000/svg"
   xmlns="http://www.w3.org/2000/svg"
   xmlns:xlink="http://www.w3.org/1999/xlink"
   xmlns:sodipodi="http://sodipodi.sourceforge.net/DTD/sodipodi-0.dtd"
   xmlns:inkscape="http://www.inkscape.org/namespaces/inkscape"
   width="640"
   height="640"
   viewBox="0 0 169.33333 169.33334"
   version="1.1"
   id="svg8"
   inkscape:version="0.92.3 (2405546, 2018-03-11)"
   sodipodi:docname="tree.svg"
   inkscape:export-filename="C:\Users\v-masebo\Desktop\tree.png"
   inkscape:export-xdpi="96"
   inkscape:export-ydpi="96">
  <defs
     id="defs2">
    <linearGradient
       inkscape:collect="always"
       id="linearGradient4904">
      <stop
         offset="0"
         id="stop4900"
         style="stop-color:#aa4400;stop-opacity:1" />
      <stop
         offset="1"
         id="stop4902"
         style="stop-color:#502d16;stop-opacity:1" />
    </linearGradient>
    <linearGradient
       inkscape:collect="always"
       id="linearGradient3844">
      <stop
         style="stop-color:#008000;stop-opacity:1;"
         offset="0"
         id="stop3840" />
      <stop
         style="stop-color:#00ff00;stop-opacity:1"
         offset="1"
         id="stop3842" />
    </linearGradient>
    <linearGradient
       inkscape:collect="always"
       id="linearGradient3832">
      <stop
         style="stop-color:#008000;stop-opacity:1;"
         offset="0"
         id="stop3828" />
      <stop
         style="stop-color:#00ff00;stop-opacity:1"
         offset="1"
         id="stop3830" />
    </linearGradient>
    <linearGradient
       inkscape:collect="always"
       xlink:href="#linearGradient3832"
       id="linearGradient3834"
       x1="91.673447"
       y1="176.99596"
       x2="-79.280823"
       y2="214.55666"
       gradientUnits="userSpaceOnUse"
       gradientTransform="translate(1.0690781,-6.6817382)" />
    <linearGradient
       inkscape:collect="always"
       xlink:href="#linearGradient3844"
       id="linearGradient3846"
       x1="153.5432"
       y1="64.213051"
       x2="18.182739"
       y2="262.20294"
       gradientUnits="userSpaceOnUse" />
    <filter
       style="color-interpolation-filters:sRGB;"
       inkscape:label="Drop Shadow"
       id="filter4867">
      <feFlood
         flood-opacity="0.498039"
         flood-color="rgb(0,0,0)"
         result="flood"
         id="feFlood4857" />
      <feComposite
         in="flood"
         in2="SourceGraphic"
         operator="out"
         result="composite1"
         id="feComposite4859" />
      <feGaussianBlur
         in="composite1"
         stdDeviation="3"
         result="blur"
         id="feGaussianBlur4861" />
      <feOffset
         dx="4"
         dy="4"
         result="offset"
         id="feOffset4863" />
      <feComposite
         in="offset"
         in2="SourceGraphic"
         operator="atop"
         result="composite2"
         id="feComposite4865" />
    </filter>
    <filter
       style="color-interpolation-filters:sRGB;"
       inkscape:label="Drop Shadow"
       id="filter4879">
      <feFlood
         flood-opacity="0.498039"
         flood-color="rgb(0,0,0)"
         result="flood"
         id="feFlood4869" />
      <feComposite
         in="flood"
         in2="SourceGraphic"
         operator="out"
         result="composite1"
         id="feComposite4871" />
      <feGaussianBlur
         in="composite1"
         stdDeviation="3"
         result="blur"
         id="feGaussianBlur4873" />
      <feOffset
         dx="4"
         dy="4"
         result="offset"
         id="feOffset4875" />
      <feComposite
         in="offset"
         in2="SourceGraphic"
         operator="atop"
         result="composite2"
         id="feComposite4877" />
    </filter>
    <filter
       style="color-interpolation-filters:sRGB;"
       inkscape:label="Drop Shadow"
       id="filter4918">
      <feFlood
         flood-opacity="0.498039"
         flood-color="rgb(0,0,0)"
         result="flood"
         id="feFlood4908" />
      <feComposite
         in="flood"
         in2="SourceGraphic"
         operator="out"
         result="composite1"
         id="feComposite4910" />
      <feGaussianBlur
         in="composite1"
         stdDeviation="3"
         result="blur"
         id="feGaussianBlur4912" />
      <feOffset
         dx="4"
         dy="4"
         result="offset"
         id="feOffset4914" />
      <feComposite
         in="offset"
         in2="SourceGraphic"
         operator="atop"
         result="composite2"
         id="feComposite4916" />
    </filter>
    <linearGradient
       inkscape:collect="always"
       xlink:href="#linearGradient4904"
       id="linearGradient5063"
       gradientUnits="userSpaceOnUse"
       x1="326.27927"
       y1="302.60904"
       x2="396.98996"
       y2="663.23352" />
    <filter
       style="color-interpolation-filters:sRGB"
       inkscape:label="Drop Shadow"
       id="filter4918-0">
      <feFlood
         flood-opacity="0.498039"
         flood-color="rgb(0,0,0)"
         result="flood"
         id="feFlood4908-1" />
      <feComposite
         in="flood"
         in2="SourceGraphic"
         operator="out"
         result="composite1"
         id="feComposite4910-0" />
      <feGaussianBlur
         in="composite1"
         stdDeviation="3"
         result="blur"
         id="feGaussianBlur4912-2" />
      <feOffset
         dx="4"
         dy="4"
         result="offset"
         id="feOffset4914-3" />
      <feComposite
         in="offset"
         in2="SourceGraphic"
         operator="atop"
         result="composite2"
         id="feComposite4916-4" />
    </filter>
  </defs>
  <sodipodi:namedview
     id="base"
     pagecolor="#ffffff"
     bordercolor="#666666"
     borderopacity="1.0"
     inkscape:pageopacity="0.0"
     inkscape:pageshadow="2"
     inkscape:zoom="0.9899495"
     inkscape:cx="-18.059825"
     inkscape:cy="259.46237"
     inkscape:document-units="mm"
     inkscape:current-layer="layer1"
     showgrid="false"
     inkscape:window-width="1432"
     inkscape:window-height="883"
     inkscape:window-x="150"
     inkscape:window-y="77"
     inkscape:window-maximized="0"
     units="px"
     showguides="false" />
  <metadata
     id="metadata5">
    <rdf:RDF>
      <cc:Work
         rdf:about="">
        <dc:format>image/svg+xml</dc:format>
        <dc:type
           rdf:resource="http://purl.org/dc/dcmitype/StillImage" />
        <dc:title />
      </cc:Work>
    </rdf:RDF>
  </metadata>
  <g
     inkscape:label="Layer 1"
     inkscape:groupmode="layer"
     id="layer1"
     transform="translate(0,-127.66664)">
    <path
       style="fill:url(#linearGradient5063);fill-opacity:1;stroke:#762d11;stroke-width:2.64566922;stroke-linecap:round;stroke-linejoin:round;stroke-miterlimit:4;stroke-dasharray:none;stroke-opacity:1;paint-order:stroke markers fill;filter:url(#filter4918)"
       d="m 396.37621,583.4089 -25.22798,1.55769 -39.85229,-2.94097 c -19.78109,-1.45978 -47.79763,-6.33304 -47.79763,-6.33304 -12.33893,-1.88462 -41.91783,-5.00582 -55.42253,-7.38639 -21.89908,-3.86042 -35.86042,-10.22747 -35.86042,-16.35413 0,-3.11489 0.9395,-3.64106 27.74015,-15.53567 25.06003,-11.12209 30.10418,-13.70989 42.46545,-21.78596 23.66935,-15.46406 46.43094,-39.98795 61.31866,-66.06621 3.88466,-6.80463 7.55717,-19.53021 8.94796,-31.00552 2.23595,-18.44873 -0.3447,-30.38681 -13.7146,-63.44374 -11.11809,-27.48935 -13.87436,-41.6997 -11.66721,-60.15188 0.62819,-5.25175 1.38545,-10.34414 1.6828,-11.31641 0.49396,-1.61514 2.47535,-1.76578 22.94846,-1.74477 21.53003,0.0221 22.27522,0.0883 19.02304,1.6907 -1.86163,0.91723 -4.58905,3.486 -6.06092,5.70836 -2.31359,3.49327 -2.7186,5.28275 -2.98961,13.20906 -0.39779,11.63456 1.72702,20.12254 12.91014,51.57207 13.19104,37.09631 14.21444,41.48882 16.23501,69.68287 0.59565,8.31154 1.70948,18.38614 2.47515,22.38798 7.68564,40.16915 38.20153,69.13085 95.60251,90.73341 16.81983,6.33006 26.12878,13.54781 26.12878,20.25912 0,4.19835 -4.26357,9.46812 -10.72292,13.25355 -6.77661,3.97136 -22.44858,9.21375 -36.04304,12.05665 -15.93732,3.33286 -68.78603,5.92566 -77.34694,3.51092 z m -3.14049,-30.59768 c 0,-0.44488 -2.07294,-1.81598 -4.60653,-3.04689 -5.73381,-2.7857 -13.975,-10.34973 -17.81077,-16.3473 -7.4997,-11.72646 -20.72895,-42.61134 -19.60272,-73.23607 0.50711,-13.78955 10.22464,-16.68455 8.5122,-43.68909 -1.24189,-19.58433 -2.62021,-35.60788 -3.06292,-35.60788 -1.13948,0 4.00657,12.0873 6.20843,45.48664 1.31162,19.89572 -9.20068,36.28812 -9.30462,55.52862 -0.13935,25.79917 15.36055,42.88881 17.24963,51.51778 3.63753,16.61581 18.62389,-0.74442 30.90767,7.23627 5.74536,3.73272 -8.49037,13.86139 -8.49037,12.15792 z M 276.36593,542.45037 c 11.74492,-4.99078 4.6262,-13.88994 14.42626,-23.64022 10.39699,-10.34418 34.60965,-18.48072 42.05667,-33.88044 4.48043,-9.2651 5.35312,-12.13976 6.8999,-22.72844 3.65275,-25.00552 5.30581,-63.35043 3.34711,-77.64076 -1.3534,-9.87403 9.21996,-0.84509 9.58274,20.06736 0.37935,21.86844 -1.64674,60.29779 -4.52683,80.80691 -1.34942,9.60918 2.76051,5.57445 -1.90713,15.38409 -13.53384,28.44308 -47.97017,30.63977 -72.47994,40.40844 -7.08444,3.81837 -6.72482,2.91392 -7.25263,3.40986 -1.99729,1.87668 2.79283,0.81363 9.85385,-2.1868 z"
       id="path4898"
       inkscape:connector-curvature="0"
       transform="matrix(0.22370179,0,0,0.39968047,-34.499754,56.506922)"
       sodipodi:nodetypes="ccsscssscssssscsssccssssccsssssssscsscssscsssccc"
       inkscape:export-xdpi="96"
       inkscape:export-ydpi="96" />
    <g
       id="g5052"
       transform="matrix(1.3175929,0.81292138,0.72374021,2.3920192,-140.4478,-277.25906)"
       inkscape:export-xdpi="96"
       inkscape:export-ydpi="96">
      <path
         inkscape:connector-curvature="0"
         id="path3836-6"
         d="m 20.390321,182.06963 c 0.03761,-0.50572 6.02193,-4.60798 9.255246,-6.34439 13.834372,-7.42961 35.500654,-12.87054 71.577463,-17.97487 11.62355,-1.64458 45.91144,-6.09941 46.29417,-6.01476 0.34712,0.0768 -126.357439,30.55915 -126.901459,30.52972 -0.131489,-0.006 -0.232897,-0.0951 -0.22542,-0.1957 z"
         style="fill:#008000;stroke:none;stroke-width:0.38059068;stroke-opacity:0.95027627" />
      <path
         inkscape:connector-curvature="0"
         id="path3836"
         d="m 21.479792,182.74621 c 0,-0.30467 4.744575,-3.15429 7.337822,-4.40714 11.095712,-5.36055 28.857289,-10.05473 58.677751,-15.50783 9.607833,-1.75694 37.974205,-6.70281 38.299165,-6.67773 0.29475,0.0228 -103.658006,26.67594 -104.114286,26.6946 -0.110249,0.005 -0.200452,-0.0413 -0.200452,-0.1019 z"
         style="fill:#008000;stroke:none;stroke-width:0.2699863;stroke-opacity:0.95027627" />
      <path
         sodipodi:nodetypes="ccc"
         inkscape:connector-curvature="0"
         id="path3776"
         d="M 21.479792,182.21704 C 37.889097,168.26319 91.567137,161.76308 136.38456,153.49085 54.899834,140.48725 3.2019882,167.51362 21.479792,182.21704 Z"
         style="fill:none;stroke:none;stroke-width:0.26458332px;stroke-linecap:butt;stroke-linejoin:miter;stroke-opacity:0.95027627" />
      <path
         sodipodi:nodetypes="ccc"
         inkscape:connector-curvature="0"
         id="path3780"
         d="m 21.479792,182.21704 c -0.577496,35.7852 76.02228,-7.9162 114.904768,-28.72619 v 0"
         style="fill:url(#linearGradient3834);fill-opacity:1;stroke:none;stroke-width:0.26458332px;stroke-linecap:butt;stroke-linejoin:miter;stroke-opacity:0.95027627;filter:url(#filter4879)" />
      <path
         transform="matrix(0.26458333,0,0,0.27496105,1.0690781,119.82964)"
         inkscape:connector-curvature="0"
         id="path3838"
         d="m 71.664793,224.19527 c -11.493851,-12.78392 -9.22027,-28.5542 6.392282,-44.33888 32.955295,-33.31862 111.395135,-58.15294 210.702135,-66.70901 7.2226,-0.62228 30.48371,-1.37776 51.69137,-1.67884 51.30561,-0.72838 86.07946,1.16808 135.69193,7.40023 31.75356,3.98878 30.83241,3.65481 17.1726,6.22614 -6.38922,1.20271 -32.98149,5.8553 -59.09393,10.33908 -138.30966,23.74926 -185.93983,32.89909 -233.87287,44.92737 -54.4309,13.65886 -96.71451,29.98096 -117.303217,45.28078 -2.752498,2.04544 -5.394068,3.71897 -5.870155,3.71897 -0.476088,0 -2.955652,-2.32462 -5.510145,-5.16584 z"
         style="fill:url(#linearGradient3846);fill-opacity:1;stroke:none;stroke-width:1.01015258;stroke-opacity:0.95027627;filter:url(#filter4867)" />
    </g>
  </g>
</svg>
